<svg width="1200" height="760" viewBox="0 0 1200 760" fill="none" xmlns="http://www.w3.org/2000/svg">
  <g opacity="0.82" stroke="#8FA2B3" stroke-width="1.6">
    <path d="M600 120V650M260 382H940" stroke-dasharray="4 8" opacity="0.3"/>
    <circle cx="600" cy="382" r="166" opacity="0.48"/>
    <circle cx="600" cy="382" r="122" opacity="0.34"/>
    <rect x="520" y="285" width="160" height="194" rx="10"/>
    <rect x="548" y="313" width="104" height="138" rx="4"/>
    <path d="M572 285V245M600 285V217M628 285V245"/>
    <path d="M600 217V168M584 168H616M592 148H608"/>
    <path d="M520 325L456 290M520 350L446 332M520 382L438 382M520 414L446 432M520 439L456 474"/>
    <path d="M680 325L744 290M680 350L754 332M680 382L762 382M680 414L754 432M680 439L744 474"/>
    <g>
      <path d="M456 290L170 180L135 250L438 382"/>
      <path d="M170 180L438 382M135 250L456 290" opacity="0.45"/>
      <path d="M184 190L150 258M214 202L180 270M244 214L210 282M274 226L240 294M304 238L270 306M334 250L300 318M364 262L330 330M394 274L360 342M424 286L390 354" opacity="0.44"/>
      <path d="M157 217L444 326M147 236L450 345M140 249L440 363" opacity="0.44"/>
    </g>
    <g>
      <path d="M744 290L1030 180L1065 250L762 382"/>
      <path d="M1030 180L762 382M1065 250L744 290" opacity="0.45"/>
      <path d="M1016 190L1050 258M986 202L1020 270M956 214L990 282M926 226L960 294M896 238L930 306M866 250L900 318M836 262L870 330M806 274L840 342M776 286L810 354" opacity="0.44"/>
      <path d="M1043 217L756 326M1053 236L750 345M1060 249L760 363" opacity="0.44"/>
    </g>
    <g>
      <path d="M456 474L190 606L154 540L438 382"/>
      <path d="M190 606L438 382M154 540L456 474" opacity="0.45"/>
      <path d="M182 595L148 530M211 581L177 516M240 567L206 502M269 553L235 488M298 539L264 474M327 525L293 460M356 511L322 446M385 497L351 432M414 483L380 418" opacity="0.44"/>
      <path d="M169 573L444 438M160 555L450 419M154 541L440 400" opacity="0.44"/>
    </g>
    <g>
      <path d="M744 474L1010 606L1046 540L762 382"/>
      <path d="M1010 606L762 382M1046 540L744 474" opacity="0.45"/>
      <path d="M1018 595L1052 530M989 581L1023 516M960 567L994 502M931 553L965 488M902 539L936 474M873 525L907 460M844 511L878 446M815 497L849 432M786 483L820 418" opacity="0.44"/>
      <path d="M1031 573L756 438M1040 555L750 419M1046 541L760 400" opacity="0.44"/>
    </g>
    <path d="M573 451L548 501M627 451L652 501M548 501H652"/>
    <path d="M600 479V548M582 548H618"/>
    <circle cx="600" cy="382" r="15"/>
    <circle cx="600" cy="382" r="4" fill="#8FA2B3"/>
    <path d="M520 382H680M600 285V479" opacity="0.5"/>
  </g>
  <g fill="#8FA2B3" opacity="0.28">
    <circle cx="160" cy="150" r="3"/><circle cx="1040" cy="150" r="3"/><circle cx="120" cy="382" r="3"/><circle cx="1080" cy="382" r="3"/><circle cx="160" cy="630" r="3"/><circle cx="1040" cy="630" r="3"/>
  </g>
</svg>
